<?xml version="1.0" encoding="UTF-8" standalone="no"?>
<!-- Created with Inkscape (http://www.inkscape.org/) -->
<svg xmlns:svg="http://www.w3.org/2000/svg" xmlns="http://www.w3.org/2000/svg" version="1.0" width="725" height="727" id="svg2">
  <defs id="defs5"/>
  <path d="M 303.34296,680.57124 L 244.35892,645.8814 L 233.21447,651.47314 C 227.08502,654.54857 198.71201,668.95041 170.16334,683.47717 C 139.23653,699.21401 117.92297,709.75763 117.43106,709.56334 C 115.99635,708.99666 18.28404,609.25351 18.2452,608.31596 C 18.22481,607.82397 32.49885,579.67499 49.96529,545.76265 C 67.43172,511.85037 81.71338,483.83975 81.70231,483.51685 C 81.69124,483.19395 66.11619,456.44519 47.09109,424.07517 C 28.06599,391.70514 12.5,365.11734 12.5,364.99117 C 12.5,364.865 28.07114,337.04076 47.10254,303.15953 C 66.13394,269.27829 81.70898,241.30606 81.71376,240.999 C 81.71853,240.69196 67.35934,213.54006 49.80445,180.66147 C 26.87831,137.72304 18.00836,120.63119 18.31912,119.99118 C 18.92093,118.75175 116.4146,19.67353 117.42532,19.27421 C 117.9102,19.08265 144.00085,32.0421 181.28186,50.9923 L 244.31855,83.03428 L 245.96963,82.02441 C 246.87772,81.46898 273.54882,65.7923 305.23874,47.18734 L 362.85677,13.36015 L 364.49459,14.31176 C 384.18416,25.75182 484.26496,82.71795 484.67991,82.7214 C 484.99859,82.72405 512.62774,68.37266 546.07804,50.82942 C 583.49355,31.20659 607.22291,19.05924 607.74442,19.26168 C 608.76362,19.65729 705.04682,117.98202 706.0807,119.68301 C 706.74551,120.77671 704.29813,125.63926 675.25738,180.92472 L 643.71196,240.9784 L 645.26049,243.71418 C 662.3993,273.99294 712.67816,365.03097 712.49953,365.46137 C 712.36541,365.78453 696.83989,392.46944 677.99843,424.76116 L 643.74121,483.47339 L 651.76543,499.23871 C 656.17874,507.90963 670.37584,535.73803 683.31455,561.07958 C 696.2532,586.42114 706.87315,607.48594 706.91447,607.89024 C 706.95573,608.29454 695.97394,619.85226 682.51052,633.57407 C 669.0471,647.29587 646.9077,669.93118 633.31185,683.87478 C 619.716,697.81834 608.22265,709.37524 607.771,709.55671 C 607.27988,709.75399 581.6103,697.00643 543.90145,677.83884 C 487.28326,649.05963 480.74143,645.86297 479.75861,646.49565 C 475.86674,649.00114 363.04774,715.3254 362.72649,715.2967 C 362.50677,715.2771 335.78418,699.65065 303.34296,680.57124 z M 421.85467,675.48693 L 478.66418,641.9891 L 487.54322,592.08736 C 492.42669,564.6414 496.65209,541.28296 496.93299,540.17977 C 497.68034,537.24465 500.89941,536.68748 501.48708,539.39151 C 501.62612,540.03125 497.63304,563.42802 492.61357,591.38428 L 483.48725,642.21384 L 544.88939,673.41988 L 606.29156,704.62591 L 618.33659,692.44699 C 624.96134,685.74857 646.47741,663.81646 666.15014,643.70899 L 701.91877,607.14992 L 671.0649,546.67073 C 654.09527,513.40718 640.19118,486.16328 640.16688,486.12873 C 640.14264,486.09419 617.37181,489.57538 589.56505,493.86472 C 561.75828,498.15406 538.47318,501.54548 537.82039,501.4012 C 535.46684,500.88108 535.63868,497.58818 538.051,496.98274 C 538.80452,496.79361 562.00846,493.1763 589.61528,488.94428 C 617.22214,484.71226 639.90703,481.13844 640.02619,481.00247 C 640.76412,480.16046 707.41059,365.40206 707.41744,364.96168 C 707.42418,364.52592 640.74656,244.33092 640.03619,243.49826 C 639.9266,243.36981 617.21067,240.15475 589.55646,236.35368 C 561.90218,232.55261 538.68139,229.29342 537.95466,229.11102 C 535.6121,228.52308 535.5292,225.22337 537.84409,224.70832 C 538.48383,224.56598 561.75828,227.59588 589.56505,231.44145 C 617.37181,235.28702 640.14226,238.40236 640.16607,238.36444 C 641.81273,235.7392 701.30783,121.51995 701.18823,121.21346 C 700.94066,120.57898 606.68292,24.37642 606.30885,24.37642 C 606.09944,24.37642 488.10821,86.04239 487.294,86.57738 C 487.25643,86.60206 490.73964,109.1286 495.03445,136.63636 C 499.32926,164.14413 502.72582,187.17392 502.58236,187.81369 C 502.06525,190.11989 498.76615,190.04789 498.1813,187.71763 C 498.00091,186.99894 494.37669,164.0247 490.12746,136.66379 C 485.87823,109.30286 482.29457,86.82906 482.16378,86.722 C 481.19928,85.93254 363.29499,18.80233 362.87063,18.80102 C 362.57163,18.80011 336.28111,34.10572 304.44726,52.8135 L 246.56751,86.82765 L 237.54098,136.46725 C 232.57638,163.76903 228.35088,186.75261 228.15099,187.54187 C 227.52586,190.01007 224.23905,190.22907 223.71535,187.83742 C 223.5724,187.1846 227.56317,164.14438 232.5837,136.63694 L 241.71196,86.62339 L 180.5178,55.5104 C 146.861,38.39826 119.16025,24.39269 118.96056,24.38692 C 118.55264,24.37512 23.74202,120.49067 23.47134,121.1904 C 23.35366,121.49461 84.67766,237.20092 85.57,238.35834 C 85.59666,238.39291 108.49177,235.15674 136.44803,231.16685 C 164.40429,227.17696 187.80103,224.02748 188.4408,224.168 C 190.79406,224.68489 190.66288,227.98193 188.26511,228.58373 C 187.50262,228.77511 164.16467,232.15146 136.40301,236.08674 C 108.64135,240.02202 85.83256,243.35205 85.7168,243.4868 C 84.9855,244.3381 17.77264,364.52336 17.78272,364.96168 C 17.79291,365.40406 84.98209,480.18459 85.70756,480.99894 C 85.82698,481.13299 108.65515,484.83393 136.43684,489.22326 C 164.21852,493.6126 187.54637,497.35381 188.2765,497.53706 C 190.65219,498.13332 190.79265,501.42788 188.46453,501.94737 C 187.81171,502.09304 164.40429,498.57819 136.44803,494.13661 C 108.49177,489.69502 85.59828,486.09037 85.57361,486.12627 C 84.46868,487.73419 23.34282,607.30856 23.46427,607.62451 C 23.73799,608.33651 118.5439,704.46119 118.96056,704.44918 C 119.16025,704.44342 146.8607,690.438 180.51713,673.32605 L 241.71063,642.21335 L 232.85569,591.38406 C 227.98547,563.42791 224.11464,540.03125 224.25386,539.39151 C 224.77508,536.99621 228.06615,537.18034 228.6883,539.63962 C 228.89127,540.44191 232.99718,563.80307 237.81254,591.55329 L 246.56774,642.00824 L 304.71918,676.17566 C 356.7563,706.75053 362.98495,710.27169 363.95789,709.66391 C 364.55589,709.29038 390.60944,693.91077 421.85467,675.48693 z M 363.27897,688.28663 C 362.31689,687.76338 338.30737,673.75807 309.92448,657.16371 C 277.03929,637.93704 258.21639,626.62803 258.03575,625.98834 C 257.34793,623.55287 259.09787,622.50002 261.65366,623.81164 C 267.49294,626.80835 365.76367,684.6444 366.54014,685.54134 C 367.71016,686.89286 367.72396,687.29695 366.63722,688.38372 C 365.5676,689.45332 365.41609,689.44897 363.27897,688.28663 z M 122.3136,681.22458 C 121.20264,680.84801 47.66413,605.60933 47.17381,604.34761 C 46.37774,602.29915 48.09733,600.68935 49.9961,601.70551 C 51.37243,602.44213 124.15634,676.72472 124.94106,678.19372 C 125.74751,679.70334 125.74349,679.75047 124.72111,680.77288 C 123.83656,681.65742 123.67813,681.68716 122.3136,681.22458 z M 600.16151,680.3526 C 598.81842,679.65164 576.92561,668.47914 551.51083,655.52477 C 526.09604,642.57046 505.27136,631.95198 505.23376,631.92817 C 505.19615,631.9043 505.00437,631.36018 504.80758,630.71897 C 504.36962,629.29188 505.86277,627.59776 507.13903,628.07371 C 510.45507,629.31031 603.35078,677.09211 604.10719,677.95018 C 605.27736,679.27767 605.29139,679.68572 604.20429,680.77288 C 603.10805,681.86911 603.05695,681.86378 600.16151,680.3526 z M 675.18704,605.16137 C 674.4701,604.95811 662.31966,581.38178 634.009,525.26067 C 629.34676,516.01859 625.85708,508.47501 626.03246,508.01796 C 626.494,506.81525 627.90918,506.45639 629.08555,507.2438 C 629.94394,507.81842 678.41577,602.29399 678.44078,603.44127 C 678.45187,603.94945 676.82489,605.53316 676.37139,605.45564 C 676.16851,605.42096 675.63553,605.28853 675.18704,605.16137 z M 200.59657,502.5005 L 200.59657,477.76525 L 204.04487,477.76525 L 207.49317,477.76525 L 220.21791,496.86877 L 232.94265,515.97229 L 233.08551,496.86877 L 233.22838,477.76525 L 236.48321,477.76525 L 239.73805,477.76525 L 239.73805,502.5005 L 239.73805,527.23574 L 236.28975,527.23574 L 232.84145,527.23574 L 220.11671,508.13222 L 207.39196,489.0287 L 207.2491,508.13222 L 207.10624,527.23574 L 203.8514,527.23574 L 200.59657,527.23574 L 200.59657,502.5005 z M 437.07635,502.5005 L 437.07635,477.76525 L 440.33815,477.76525 L 443.59994,477.76525 L 443.59994,487.82244 L 443.59994,497.87963 L 456.6471,497.87963 L 469.69426,497.87963 L 469.69426,487.82244 L 469.69426,477.76525 L 472.95605,477.76525 L 476.21784,477.76525 L 476.21784,502.5005 L 476.21784,527.23574 L 472.95605,527.23574 L 469.69426,527.23574 L 469.69426,515.54766 L 469.69426,503.85958 L 456.6471,503.85958 L 443.59994,503.85958 L 443.59994,515.54766 L 443.59994,527.23574 L 440.33815,527.23574 L 437.07635,527.23574 L 437.07635,502.5005 z M 486.54684,502.5005 L 486.54684,477.76525 L 489.99514,477.76525 L 493.44344,477.76525 L 506.16818,496.86877 L 518.89292,515.97229 L 519.03579,496.86877 L 519.17865,477.76525 L 522.43348,477.76525 L 525.68832,477.76525 L 525.68832,502.5005 L 525.68832,527.23574 L 522.24002,527.23574 L 518.79172,527.23574 L 506.06698,508.13222 L 493.34224,489.0287 L 493.19937,508.13222 L 493.05651,527.23574 L 489.80168,527.23574 L 486.54684,527.23574 L 486.54684,502.5005 z M 142.34544,518.54592 C 118.23075,514.73396 97.88126,511.45964 97.12434,511.26967 C 94.88911,510.70867 94.58062,507.54219 96.69579,506.87085 C 97.20162,506.71031 117.90517,509.75892 142.70368,513.64555 C 167.50219,517.53218 187.96448,520.71216 188.17544,520.71216 C 188.83607,520.71216 190.26756,522.38602 190.26756,523.1585 C 190.26756,524.30712 188.68353,525.61158 187.37467,525.5408 C 186.72328,525.50558 166.46013,522.35789 142.34544,518.54592 z M 38.88651,368.70982 C 38.40651,368.22981 38.15156,367.40299 38.31995,366.87243 C 38.48835,366.34188 52.50196,341.19341 69.46132,310.98697 C 89.57016,275.17096 100.6457,255.96669 101.30031,255.7802 C 103.93489,255.02969 104.77144,256.8567 103.2033,259.9363 C 99.19013,267.81756 42.61388,367.85794 41.73263,368.63119 C 40.39492,369.80496 39.99277,369.81606 38.88651,368.70982 z M 683.88514,369.21326 C 683.43665,369.07953 669.85945,345.35219 653.71359,316.48584 C 619.46789,255.25973 621.24779,258.53892 621.66726,257.44583 C 622.11331,256.28339 623.41634,255.85801 624.59645,256.48957 C 625.5807,257.01632 687.14693,366.25165 687.14693,367.47122 C 687.14693,368.00987 685.53507,369.59908 685.0695,369.51948 C 684.86662,369.4848 684.33364,369.347 683.88514,369.21326 z M 200.59657,219.81201 L 200.59657,195.07677 L 204.04487,195.07677 L 207.49317,195.07677 L 220.21791,214.18029 L 232.94265,233.28381 L 233.08551,214.18029 L 233.22838,195.07677 L 236.48321,195.07677 L 239.73805,195.07677 L 239.73805,219.81201 L 239.73805,244.54726 L 236.28975,244.54726 L 232.84145,244.54726 L 220.11671,225.44374 L 207.39196,206.34022 L 207.2491,225.44374 L 207.10624,244.54726 L 203.8514,244.54726 L 200.59657,244.54726 L 200.59657,219.81201 z M 250.06705,219.81201 L 250.06705,195.07677 L 253.32884,195.07677 L 256.59063,195.07677 L 256.59063,205.13396 L 256.59063,215.19114 L 269.63779,215.19114 L 282.68495,215.19114 L 282.68495,205.13396 L 282.68495,195.07677 L 285.94674,195.07677 L 289.20853,195.07677 L 289.20853,219.81201 L 289.20853,244.54726 L 285.94674,244.54726 L 282.68495,244.54726 L 282.68495,232.85917 L 282.68495,221.17109 L 269.63779,221.17109 L 256.59063,221.17109 L 256.59063,232.85917 L 256.59063,244.54726 L 253.32884,244.54726 L 250.06705,244.54726 L 250.06705,219.81201 z M 486.54684,219.81201 L 486.54684,195.07677 L 489.99514,195.07677 L 493.44344,195.07677 L 506.16818,214.18029 L 518.89292,233.28381 L 519.03579,214.18029 L 519.17865,195.07677 L 522.43348,195.07677 L 525.68832,195.07677 L 525.68832,219.81201 L 525.68832,244.54726 L 522.24002,244.54726 L 518.79172,244.54726 L 506.06698,225.44374 L 493.34224,206.34022 L 493.19937,225.44374 L 493.05651,244.54726 L 489.80168,244.54726 L 486.54684,244.54726 L 486.54684,219.81201 z M 522.73718,188.78618 C 522.26732,188.31633 521.8829,187.75324 521.8829,187.53488 C 521.8829,187.31652 518.70129,167.10401 514.81267,142.61818 C 510.92404,118.13236 507.87542,97.67949 508.03796,97.16738 C 508.62889,95.30554 511.74933,95.26748 512.33437,97.11497 C 512.60933,97.98323 526.77558,186.6816 526.77558,187.53488 C 526.77558,188.20642 525.10946,189.64045 524.32924,189.64045 C 523.92348,189.64045 523.20703,189.25603 522.73718,188.78618 z M 47.58462,126.79371 C 47.0282,126.23729 46.84359,125.50604 47.07525,124.77612 C 47.53197,123.33714 121.13587,48.02265 122.50194,47.59647 C 124.67645,46.91809 126.0275,48.60861 124.93912,50.64603 C 124.15437,52.11504 51.36904,126.39579 49.99246,127.13251 C 48.68923,127.82998 48.6097,127.81879 47.58462,126.79371 z M 675.18704,127.26435 C 674.07466,126.88791 601.08063,52.19566 600.59087,50.93272 C 599.79668,48.88473 601.51315,47.27159 603.40759,48.28548 C 604.77929,49.01958 677.03022,122.767 677.81397,124.233 C 678.621,125.74251 678.61703,125.78971 677.59456,126.81216 C 676.71013,127.6966 676.55204,127.7263 675.18704,127.26435 z M 258.51372,105.04844 C 257.95746,104.49218 257.77074,103.75294 257.99879,103.00982 C 258.19558,102.36858 258.38736,101.82802 258.42497,101.80857 C 258.46257,101.78912 281.97823,87.9829 310.68199,71.1281 C 339.38574,54.27329 363.51437,40.15812 364.30117,39.76107 C 366.67105,38.5651 368.66046,40.13203 367.50745,42.28645 C 366.92518,43.37444 261.07533,105.87608 259.75535,105.91132 C 259.55245,105.91674 258.99372,105.52844 258.51372,105.04844 z " style="fill:#000000" id="path1394"/>
</svg>